<svg xmlns="http://www.w3.org/2000/svg" width="422.046" height="422.047" viewBox="0 0 422.046 422.047"><defs><style>.a{fill:#fff;opacity:0.502;mix-blend-mode:overlay;isolation:isolate;}</style></defs><path class="a" d="M1359.023,601.047a212.583,212.583,0,0,1-42.528-4.287,209.869,209.869,0,0,1-75.456-31.752,211.639,211.639,0,0,1-76.455-92.844,209.968,209.968,0,0,1-12.3-39.611,213.082,213.082,0,0,1,0-85.057,209.87,209.87,0,0,1,31.752-75.457,211.638,211.638,0,0,1,92.844-76.455,209.962,209.962,0,0,1,39.611-12.3,213.083,213.083,0,0,1,85.057,0,209.873,209.873,0,0,1,75.457,31.752,211.636,211.636,0,0,1,76.454,92.844,209.953,209.953,0,0,1,12.3,39.611,213.082,213.082,0,0,1,0,85.057,209.874,209.874,0,0,1-31.752,75.456,211.636,211.636,0,0,1-92.844,76.455,209.961,209.961,0,0,1-39.611,12.3A212.585,212.585,0,0,1,1359.023,601.047Zm1.48-369.923a159.9,159.9,0,0,0-31.99,3.225,157.856,157.856,0,0,0-56.759,23.884,159.2,159.2,0,0,0-57.51,69.837,157.94,157.94,0,0,0-9.249,29.8,160.281,160.281,0,0,0,0,63.98,157.859,157.859,0,0,0,23.884,56.759,159.2,159.2,0,0,0,69.837,57.51,157.931,157.931,0,0,0,29.8,9.249,160.279,160.279,0,0,0,63.98,0,157.859,157.859,0,0,0,56.759-23.884,159.2,159.2,0,0,0,57.51-69.838,157.938,157.938,0,0,0,9.249-29.8,160.281,160.281,0,0,0,0-63.98,157.857,157.857,0,0,0-23.884-56.759,159.2,159.2,0,0,0-69.838-57.51,157.935,157.935,0,0,0-29.8-9.249A159.9,159.9,0,0,0,1360.5,231.124ZM1268.6,482.178h0l51.951-132.259,131.022-51.951L1398.383,428.99,1268.6,482.178ZM1359.41,364.03a26.283,26.283,0,1,0,10.264,2.073A26.2,26.2,0,0,0,1359.41,364.03Z" transform="translate(-1148 -179)"/></svg>